<?xml version="1.0" encoding="utf-8"?>
<!-- Generator: Adobe Illustrator 15.1.0, SVG Export Plug-In . SVG Version: 6.00 Build 0)  -->
<!DOCTYPE svg PUBLIC "-//W3C//DTD SVG 1.1//EN" "http://www.w3.org/Graphics/SVG/1.1/DTD/svg11.dtd">
<svg version="1.1" xmlns="http://www.w3.org/2000/svg" xmlns:xlink="http://www.w3.org/1999/xlink" x="0px" y="0px"
	 width="68.031px" height="34.016px" viewBox="0 0 68.031 34.016" enable-background="new 0 0 68.031 34.016" xml:space="preserve">
<g id="レイヤー_2">
	<path fill="#5F7174" d="M5.627,0C2.532,0,0,2.533,0,5.628v22.508c0,3.095,2.532,5.626,5.627,5.626h8.495V0H5.627z"/>
	<rect x="14.121" y="0" fill="#6C493C" width="18.788" height="33.762"/>
	<path fill="#99373C" d="M61.896,0H51.697v33.762h10.199c3.095,0,5.627-2.531,5.627-5.626V5.628C67.523,2.533,64.991,0,61.896,0"/>
	<rect x="32.909" y="0" fill="#D893AD" width="18.788" height="33.762"/>
</g>
<g id="レイヤー_1">
	<g>
		<path fill="#FFFFFF" d="M7.184,21.884v-3.119l7.296-9.792h3.048v10.104h2.231v2.808h-2.231v3.889h-3.239v-3.889H7.184z
			 M14.216,13.244l-4.344,5.832h4.416v-5.832H14.216z"/>
		<path fill="#FFFFFF" d="M21.14,13.184c0.327-1.112,0.771-2.004,1.332-2.677c0.56-0.672,1.212-1.151,1.956-1.439
			c0.743-0.288,1.53-0.433,2.363-0.433c0.849,0,1.645,0.146,2.389,0.433c0.743,0.288,1.398,0.768,1.968,1.439
			c0.566,0.673,1.016,1.564,1.344,2.677c0.328,1.111,0.492,2.483,0.492,4.115c0,1.681-0.164,3.084-0.492,4.213
			c-0.328,1.128-0.776,2.027-1.344,2.699c-0.568,0.672-1.225,1.152-1.968,1.44c-0.744,0.288-1.54,0.432-2.389,0.432
			c-0.833,0-1.62-0.144-2.363-0.432c-0.744-0.288-1.396-0.769-1.956-1.44c-0.562-0.672-1.005-1.571-1.332-2.699
			c-0.328-1.129-0.492-2.532-0.492-4.213C20.648,15.668,20.812,14.296,21.14,13.184z M24.104,19.04
			c0.032,0.68,0.132,1.336,0.3,1.968c0.168,0.633,0.436,1.173,0.805,1.62c0.367,0.448,0.896,0.672,1.584,0.672
			c0.703,0,1.243-0.224,1.619-0.672c0.376-0.447,0.648-0.987,0.816-1.62c0.168-0.632,0.268-1.288,0.3-1.968s0.048-1.26,0.048-1.74
			c0-0.287-0.004-0.636-0.012-1.044c-0.008-0.407-0.04-0.828-0.097-1.26s-0.137-0.86-0.239-1.284
			c-0.104-0.424-0.261-0.804-0.469-1.14s-0.473-0.608-0.792-0.816s-0.712-0.312-1.176-0.312c-0.465,0-0.853,0.104-1.164,0.312
			s-0.567,0.48-0.769,0.816c-0.2,0.336-0.356,0.716-0.468,1.14c-0.112,0.424-0.192,0.853-0.24,1.284s-0.076,0.853-0.084,1.26
			c-0.008,0.408-0.012,0.757-0.012,1.044C24.056,17.78,24.072,18.36,24.104,19.04z"/>
		<path fill="#FFFFFF" d="M34.484,13.184c0.328-1.112,0.771-2.004,1.332-2.677c0.56-0.672,1.212-1.151,1.956-1.439
			s1.531-0.433,2.364-0.433c0.848,0,1.644,0.146,2.388,0.433c0.744,0.288,1.398,0.768,1.968,1.439
			c0.567,0.673,1.016,1.564,1.344,2.677c0.328,1.111,0.492,2.483,0.492,4.115c0,1.681-0.164,3.084-0.492,4.213
			c-0.328,1.128-0.775,2.027-1.344,2.699s-1.224,1.152-1.968,1.44s-1.54,0.432-2.388,0.432c-0.833,0-1.62-0.144-2.364-0.432
			s-1.396-0.769-1.956-1.44c-0.562-0.672-1.004-1.571-1.332-2.699c-0.328-1.129-0.492-2.532-0.492-4.213
			C33.992,15.668,34.156,14.296,34.484,13.184z M37.448,19.04c0.032,0.68,0.132,1.336,0.3,1.968c0.168,0.633,0.437,1.173,0.806,1.62
			c0.366,0.448,0.896,0.672,1.584,0.672c0.702,0,1.242-0.224,1.618-0.672c0.376-0.447,0.648-0.987,0.816-1.62
			c0.168-0.632,0.268-1.288,0.3-1.968s0.048-1.26,0.048-1.74c0-0.287-0.004-0.636-0.012-1.044c-0.008-0.407-0.04-0.828-0.096-1.26
			c-0.058-0.432-0.138-0.86-0.24-1.284c-0.104-0.424-0.26-0.804-0.468-1.14s-0.474-0.608-0.792-0.816
			c-0.32-0.208-0.712-0.312-1.176-0.312c-0.466,0-0.854,0.104-1.164,0.312c-0.312,0.208-0.568,0.48-0.77,0.816
			c-0.2,0.336-0.355,0.716-0.468,1.14s-0.192,0.853-0.24,1.284s-0.076,0.853-0.084,1.26C37.404,16.664,37.4,17.012,37.4,17.3
			C37.4,17.78,37.416,18.36,37.448,19.04z"/>
		<path fill="#FFFFFF" d="M60.104,18.427v2.568h-4.776v4.776H52.76v-4.776h-4.774v-2.568h4.774v-4.775h2.568v4.775H60.104z"/>
	</g>
</g>
</svg>
