<?xml version="1.0" encoding="utf-8"?>
<!-- Generator: Adobe Illustrator 15.1.0, SVG Export Plug-In . SVG Version: 6.00 Build 0)  -->
<!DOCTYPE svg PUBLIC "-//W3C//DTD SVG 1.1//EN" "http://www.w3.org/Graphics/SVG/1.1/DTD/svg11.dtd">
<svg version="1.1" id="レイヤー_1" xmlns="http://www.w3.org/2000/svg" xmlns:xlink="http://www.w3.org/1999/xlink" x="0px"
	 y="0px" width="68.031px" height="34.015px" viewBox="0 0 68.031 34.015" enable-background="new 0 0 68.031 34.015"
	 xml:space="preserve">
<g>
	<path fill="#898989" d="M68.031,28.346c0,3.118-2.551,5.669-5.669,5.669H5.669C2.551,34.015,0,31.464,0,28.346V5.669
		C0,2.551,2.551,0,5.669,0h56.693c3.118,0,5.669,2.551,5.669,5.669V28.346z"/>
</g>
<g>
	<path fill="#FFFFFF" d="M7.184,21.884v-3.12l7.296-9.792h3.048v10.104h2.232v2.808h-2.232v3.888h-3.239v-3.888H7.184z
		 M14.216,13.244l-4.344,5.832h4.416v-5.832H14.216z"/>
	<path fill="#FFFFFF" d="M21.14,13.184c0.328-1.112,0.771-2.004,1.332-2.676c0.56-0.672,1.212-1.152,1.956-1.44
		c0.744-0.288,1.531-0.432,2.364-0.432c0.848,0,1.644,0.145,2.388,0.432c0.744,0.288,1.399,0.768,1.968,1.44
		c0.567,0.672,1.016,1.564,1.344,2.676c0.328,1.112,0.492,2.484,0.492,4.116c0,1.68-0.164,3.084-0.492,4.212
		c-0.328,1.128-0.776,2.028-1.344,2.7s-1.224,1.152-1.968,1.44c-0.744,0.288-1.54,0.432-2.388,0.432
		c-0.833,0-1.62-0.144-2.364-0.432c-0.744-0.288-1.396-0.768-1.956-1.44c-0.561-0.672-1.004-1.572-1.332-2.7
		c-0.328-1.128-0.492-2.532-0.492-4.212C20.648,15.668,20.812,14.296,21.14,13.184z M24.104,19.04c0.032,0.68,0.132,1.336,0.3,1.968
		c0.168,0.632,0.436,1.172,0.805,1.62c0.367,0.448,0.896,0.672,1.584,0.672c0.703,0,1.243-0.224,1.619-0.672
		c0.376-0.448,0.648-0.988,0.816-1.62c0.168-0.632,0.268-1.288,0.3-1.968c0.032-0.68,0.048-1.26,0.048-1.74
		c0-0.288-0.004-0.636-0.012-1.044c-0.008-0.408-0.04-0.828-0.096-1.26c-0.057-0.432-0.137-0.86-0.24-1.284
		c-0.104-0.424-0.26-0.804-0.468-1.14c-0.208-0.336-0.473-0.608-0.792-0.816c-0.32-0.208-0.712-0.312-1.176-0.312
		c-0.465,0-0.853,0.104-1.164,0.312c-0.312,0.208-0.568,0.48-0.769,0.816c-0.2,0.336-0.356,0.716-0.468,1.14
		c-0.112,0.424-0.192,0.852-0.24,1.284c-0.048,0.432-0.076,0.852-0.084,1.26c-0.008,0.408-0.012,0.756-0.012,1.044
		C24.056,17.78,24.072,18.36,24.104,19.04z"/>
	<path fill="#FFFFFF" d="M34.484,13.184c0.328-1.112,0.771-2.004,1.332-2.676c0.56-0.672,1.212-1.152,1.956-1.44
		c0.744-0.288,1.531-0.432,2.364-0.432c0.848,0,1.644,0.145,2.388,0.432c0.744,0.288,1.399,0.768,1.968,1.44
		c0.567,0.672,1.016,1.564,1.344,2.676s0.492,2.484,0.492,4.116c0,1.68-0.164,3.084-0.492,4.212c-0.328,1.128-0.776,2.028-1.344,2.7
		c-0.568,0.672-1.224,1.152-1.968,1.44c-0.744,0.288-1.54,0.432-2.388,0.432c-0.833,0-1.62-0.144-2.364-0.432
		c-0.744-0.288-1.396-0.768-1.956-1.44c-0.561-0.672-1.004-1.572-1.332-2.7c-0.328-1.128-0.492-2.532-0.492-4.212
		C33.992,15.668,34.156,14.296,34.484,13.184z M37.448,19.04c0.032,0.68,0.132,1.336,0.3,1.968c0.168,0.632,0.436,1.172,0.805,1.62
		c0.367,0.448,0.896,0.672,1.584,0.672c0.703,0,1.243-0.224,1.619-0.672c0.376-0.448,0.648-0.988,0.816-1.62
		c0.168-0.632,0.268-1.288,0.3-1.968c0.032-0.68,0.048-1.26,0.048-1.74c0-0.288-0.004-0.636-0.012-1.044
		c-0.008-0.408-0.04-0.828-0.096-1.26c-0.057-0.432-0.137-0.86-0.24-1.284c-0.104-0.424-0.26-0.804-0.468-1.14
		c-0.208-0.336-0.473-0.608-0.792-0.816c-0.32-0.208-0.712-0.312-1.176-0.312c-0.465,0-0.853,0.104-1.164,0.312
		c-0.312,0.208-0.568,0.48-0.769,0.816c-0.2,0.336-0.356,0.716-0.468,1.14c-0.112,0.424-0.192,0.852-0.24,1.284
		c-0.048,0.432-0.076,0.852-0.084,1.26C37.404,16.664,37.4,17.012,37.4,17.3C37.4,17.78,37.416,18.36,37.448,19.04z"/>
	<path fill="#FFFFFF" d="M60.104,18.428v2.568h-4.776v4.776H52.76v-4.776h-4.775v-2.568h4.775v-4.776h2.568v4.776H60.104z"/>
</g>
</svg>
