<?xml version="1.0" encoding="utf-8"?>
<!-- Generator: Adobe Illustrator 15.1.0, SVG Export Plug-In . SVG Version: 6.00 Build 0)  -->
<!DOCTYPE svg PUBLIC "-//W3C//DTD SVG 1.1//EN" "http://www.w3.org/Graphics/SVG/1.1/DTD/svg11.dtd">
<svg version="1.1" id="レイヤー_1" xmlns="http://www.w3.org/2000/svg" xmlns:xlink="http://www.w3.org/1999/xlink" x="0px"
	 y="0px" width="84.532px" height="66.486px" viewBox="0 0 84.532 66.486" enable-background="new 0 0 84.532 66.486"
	 xml:space="preserve">
<path fill="#9A383C" d="M42.41,0.756V0.75c0,0-0.053,0.001-0.143,0.003c-0.093-0.002-0.145-0.003-0.145-0.003v0.006
	C39.195,0.817,14.516,1.288,0,0l1.848,5.294h4.21L7.27,8.587c2.37,0.265,5.64,0.448,9.234,0.574l-0.369,7.19H7.27v5.453h8.585
	l-1.933,37.715l-1.436,0.241l-0.369,6.726l12.916-0.16l-0.303-6.664l-1.554-0.219l1.209-37.639h17.737h0.288h17.737l1.21,37.639
	l-1.556,0.219l-0.304,6.664l12.918,0.16l-0.368-6.726l-1.437-0.241l-1.933-37.715h8.584v-5.453h-8.866l-0.368-7.19
	c3.595-0.126,6.863-0.309,9.234-0.574l1.21-3.293h4.212L84.532,0C70.017,1.288,45.339,0.817,42.41,0.756 M24.785,9.356
	c5.461,0.078,10.717,0.072,14.046,0.055v6.94H24.56L24.785,9.356z M45.699,16.351v-6.94c3.332,0.017,8.59,0.023,14.048-0.055
	l0.225,6.995H45.699z"/>
</svg>
