<?xml version="1.0" encoding="utf-8"?>
<!-- Generator: Adobe Illustrator 15.1.0, SVG Export Plug-In . SVG Version: 6.00 Build 0)  -->
<!DOCTYPE svg PUBLIC "-//W3C//DTD SVG 1.1//EN" "http://www.w3.org/Graphics/SVG/1.1/DTD/svg11.dtd">
<svg version="1.1" id="レイヤー_1" xmlns="http://www.w3.org/2000/svg" xmlns:xlink="http://www.w3.org/1999/xlink" x="0px"
	 y="0px" width="42.52px" height="34.641px" viewBox="0 0 42.52 34.641" enable-background="new 0 0 42.52 34.641"
	 xml:space="preserve">
<g>
	<g>
		<defs>
			<rect id="SVGID_1_" width="42.52" height="34.653"/>
		</defs>
		<clipPath id="SVGID_2_">
			<use xlink:href="#SVGID_1_"  overflow="visible"/>
		</clipPath>
		<g clip-path="url(#SVGID_2_)">
			<defs>
				<rect id="SVGID_3_" x="0.013" y="0.098" width="42.507" height="34.543"/>
			</defs>
			<clipPath id="SVGID_4_">
				<use xlink:href="#SVGID_3_"  overflow="visible"/>
			</clipPath>
			<path clip-path="url(#SVGID_4_)" fill="#898989" d="M42.52,4.189c-1.563,0.694-3.245,1.163-5.009,1.374
				c1.8-1.08,3.185-2.789,3.835-4.827c-1.686,1-3.552,1.726-5.539,2.116c-1.594-1.695-3.86-2.755-6.369-2.755
				c-4.817,0-8.723,3.907-8.723,8.726c0,0.683,0.077,1.349,0.226,1.987C13.69,10.446,7.262,6.974,2.96,1.694
				c-0.75,1.288-1.181,2.788-1.181,4.387c0,3.027,1.54,5.697,3.88,7.261c-1.43-0.046-2.774-0.438-3.951-1.091
				c-0.001,0.036-0.001,0.073-0.001,0.109c0,4.227,3.007,7.752,6.998,8.555c-0.731,0.198-1.502,0.306-2.298,0.306
				c-0.562,0-1.109-0.056-1.641-0.156c1.109,3.465,4.332,5.986,8.148,6.058c-2.986,2.34-6.747,3.733-10.833,3.733
				c-0.704,0-1.399-0.041-2.081-0.122c3.861,2.476,8.446,3.92,13.372,3.92c16.045,0,24.821-13.291,24.821-24.819
				c0-0.379-0.008-0.755-0.024-1.128C39.872,7.476,41.351,5.938,42.52,4.189"/>
		</g>
	</g>
</g>
</svg>
