<?xml version="1.0" encoding="utf-8"?>
<!-- Generator: Adobe Illustrator 15.1.0, SVG Export Plug-In . SVG Version: 6.00 Build 0)  -->
<!DOCTYPE svg PUBLIC "-//W3C//DTD SVG 1.1//EN" "http://www.w3.org/Graphics/SVG/1.1/DTD/svg11.dtd">
<svg version="1.1" id="レイヤー_1" xmlns="http://www.w3.org/2000/svg" xmlns:xlink="http://www.w3.org/1999/xlink" x="0px"
	 y="0px" width="42.52px" height="34.641px" viewBox="0 0 42.52 34.641" enable-background="new 0 0 42.52 34.641"
	 xml:space="preserve">
<g>
	<defs>
		<rect id="SVGID_1_" x="0" y="0" width="42.52" height="34.551"/>
	</defs>
	<clipPath id="SVGID_2_">
		<use xlink:href="#SVGID_1_"  overflow="visible"/>
	</clipPath>
	<path clip-path="url(#SVGID_2_)" fill="#6AA8AF" d="M42.52,4.092c-1.563,0.693-3.247,1.163-5.011,1.374
		c1.802-1.081,3.188-2.791,3.836-4.828c-1.685,0.999-3.554,1.725-5.541,2.117c-1.595-1.697-3.86-2.755-6.369-2.755
		c-4.819,0-8.727,3.907-8.727,8.727c0,0.683,0.078,1.351,0.227,1.989c-7.253-0.364-13.683-3.839-17.985-9.12
		C2.198,2.884,1.768,4.384,1.768,5.984c0,3.029,1.541,5.699,3.882,7.262c-1.431-0.045-2.776-0.437-3.954-1.089
		c-0.001,0.035-0.001,0.072-0.001,0.108c0,4.228,3.009,7.753,7,8.559c-0.731,0.196-1.502,0.305-2.299,0.305
		c-0.562,0-1.109-0.057-1.642-0.156c1.11,3.464,4.333,5.986,8.151,6.06c-2.986,2.34-6.748,3.733-10.836,3.733
		c-0.705,0-1.399-0.041-2.082-0.122c3.862,2.476,8.449,3.921,13.375,3.921c16.049,0,24.828-13.294,24.828-24.826
		c0-0.38-0.01-0.756-0.024-1.129C39.87,7.378,41.35,5.841,42.52,4.092"/>
</g>
</svg>
